<svg xmlns="http://www.w3.org/2000/svg" viewBox="0 0 100 100" fill="none">
  <!-- Sun Rays (Sun Yellow/Gold) -->
  <g fill="#F2A900">
    <path d="M50 5 L55 20 L45 20 Z" />
    <path d="M50 95 L55 80 L45 80 Z" />
    <path d="M5 50 L20 45 L20 55 Z" />
    <path d="M95 50 L80 45 L80 55 Z" />
    <path d="M18 18 L32 24 L24 32 Z" />
    <path d="M82 82 L68 76 L76 68 Z" />
    <path d="M18 82 L24 68 L32 76 Z" />
    <path d="M82 18 L76 32 L68 24 Z" />
  </g>
  <!-- Central Circle to Anchor -->
  <circle cx="50" cy="50" r="22" fill="#F2A900"/>
  <!-- Central Maple Leaf Abstraction (Vibrant Red) -->
  <!-- A simplified 3-pronged leaf over the sun -->
  <path d="M50 35 L55 50 L65 45 L58 58 L70 65 L53 65 L50 75 L47 65 L30 65 L42 58 L35 45 L45 50 Z" fill="#D32F2F" />
</svg>
